<svg xmlns="http://www.w3.org/2000/svg" xmlns:xlink="http://www.w3.org/1999/xlink" version="1.1" x="0px" y="0px" viewBox="0 0 100 125" enable-background="new 0 0 100 100" xml:space="preserve"><path d="M23.793,66.736c1.266,0,2.481-0.127,3.685-0.306c0.721,4.938,3.66,9.156,7.775,11.614c-0.026,0.075-0.063,0.15-0.077,0.227  l-0.012,0.076v0.013c-0.14,0.671-0.102,1.355,0.025,2.013h-3.951c-7.231,0-13.804-2.924-18.553-7.687  c-3.862-3.874-6.509-8.952-7.357-14.626C9.863,63.544,16.549,66.736,23.793,66.736z M61.67,32.151c0,1.431,1.164,2.595,2.596,2.595  c1.443,0,2.608-1.165,2.608-2.595c0-1.444-1.165-2.609-2.608-2.609C62.834,29.542,61.67,30.707,61.67,32.151z M32.733,26.414h52.009  c4.584,0,8.319-3.722,8.319-8.319c0-4.585-3.735-8.309-8.319-8.309c-0.531,0-0.963-0.43-0.963-0.974  c0-0.532,0.432-0.963,0.963-0.963C90.402,7.849,95,12.446,95,18.095c0,5.66-4.598,10.257-10.258,10.257H73.75  c-0.012,0.076-0.012,0.165-0.024,0.241c-0.786,7.774-5.775,14.309-12.663,17.323l5.66,5.838c0.519,0.545,0.544,1.405,0.05,1.977  l-5.191,5.938c-0.292,0.329-0.697,0.507-1.103,0.507c-0.328,0-0.672-0.127-0.949-0.367c-0.608-0.52-0.672-1.444-0.14-2.053  l4.307-4.938l-5.636-5.851c-1.33,0.355-2.724,0.583-4.154,0.671l4.002,4.116c0.52,0.545,0.544,1.405,0.051,1.977l-5.193,5.938  c-0.29,0.329-0.684,0.507-1.088,0.507c-0.342,0-0.684-0.127-0.963-0.367c-0.607-0.52-0.671-1.444-0.139-2.053l4.306-4.938  l-5.116-5.318c-10.435-1.342-18.501-10.244-18.526-21.046C31.746,26.439,32.227,26.414,32.733,26.414z M64.266,36.013  c2.141,0,3.874-1.735,3.874-3.862c0-2.14-1.733-3.875-3.874-3.875c-2.127,0-3.863,1.735-3.863,3.875  C60.402,34.278,62.139,36.013,64.266,36.013z M36.406,78.602c-0.329,1.671,0.646,3.482,1.494,4.85  c0.874,1.418,1.988,2.697,3.267,3.773c4.014,3.381,9.409,4.914,14.603,4.926c-0.572-5.002-3.648-9.231-7.941-11.384  c5.8-1.279,10.321-5.952,11.347-11.853c-1.331-0.203-2.71-0.33-4.128-0.33c-2.913,0-5.826,0.469-8.562,1.456  c-2.457,0.887-4.735,2.191-6.673,3.964c-1.253,1.152-3.027,2.799-3.394,4.533C36.406,78.562,36.406,78.589,36.406,78.602z M5,54.136  c0,0.505,0.051,1,0.076,1.494c4.255,6.179,11.169,9.839,18.717,9.839c1.216,0,2.381-0.115,3.545-0.304  c-0.025-0.368-0.051-0.747-0.051-1.127c0-3.559,1.14-6.826,3.078-9.511c-9.257-2.165-16.387-9.51-18.324-18.806  C7.672,40.623,5,47.056,5,54.136z M29.985,26.578c-6.573,0.659-12.461,3.572-16.868,7.991c1.583,9.435,8.776,16.906,18.122,18.844  c0.266-0.317,0.544-0.632,0.835-0.938c2.432-2.444,5.648-4.115,9.231-4.622l4.774,4.963l-4.318,4.938  c-0.519,0.608-0.456,1.533,0.14,2.053c0.278,0.24,0.62,0.367,0.962,0.367c0.405,0,0.811-0.178,1.089-0.507l5.192-5.938  c0.494-0.571,0.481-1.432-0.051-1.977l-3.938-4.064c-1.114-0.394-2.191-0.862-3.217-1.406C34.886,42.51,30.036,35.113,29.985,26.578  z M85.68,20.463c0-4.357-3.546-7.903-7.901-7.903c-0.546,0-0.977,0.431-0.977,0.963c0,0.531,0.431,0.974,0.977,0.974  c3.278,0,5.951,2.672,5.951,5.966c0,1.911-0.899,3.608-2.305,4.685h2.697C85.109,23.831,85.68,22.209,85.68,20.463z"/><text x="0" y="115" fill="#000000" font-size="5px" font-weight="bold" font-family="'Helvetica Neue', Helvetica, Arial-Unicode, Arial, Sans-serif">Created by Kevin</text><text x="0" y="120" fill="#000000" font-size="5px" font-weight="bold" font-family="'Helvetica Neue', Helvetica, Arial-Unicode, Arial, Sans-serif">from the Noun Project</text></svg>