<svg xmlns="http://www.w3.org/2000/svg" xmlns:xlink="http://www.w3.org/1999/xlink" version="1.1" x="0px" y="0px" viewBox="0 0 50 62.5" enable-background="new 0 0 50 50" xml:space="preserve"><g><path d="M8.1,32.7c1.3,1.1,2.7,2.1,4.2,2.9h3.3c1.7-3.6,0.7-7.2-0.1-9.1c-2.5,0.8-4.8,2.1-6.9,3.9c0.6,0.3,1.2,0.8,1.2,1.7   C9.8,32.8,9,32.8,8.1,32.7z M12.6,29.6c0.4,0,0.7,0.3,0.7,0.7c0,0.4-0.3,0.7-0.7,0.7c-0.4,0-0.7-0.3-0.7-0.7   C11.8,30,12.1,29.6,12.6,29.6z"/><path d="M36.8,30.6c-5.4-4.6-12.5-6.2-19.1-4.7c0.8,2.1,1.7,5.9,0.3,9.7h14.9c1.4-0.7,2.7-1.6,4-2.7l2.7,2.7h2   c-0.4-3.2-0.3-6.6,0.4-10.1L36.8,30.6z"/><path d="M43.6,44.3l5.4-6.8c-14.6,0-32.2,0-48,0l5.4,6.8H43.6z"/><path d="M30.5,8.8c-1.7,4.4,1.9,8,2.4,10.1c0.6,1.7-0.4,2.8-0.4,2.9c0.1,0,3,0.3,3.5-3.5c0.5-4-2.4-6-2.3-9.9   c0.1-1.5,0.6-2.6,0.6-2.7C34.2,5.7,31.7,5.8,30.5,8.8z"/><path d="M21.6,8.8c-1.7,4.4,2.1,8.1,2.5,10.5c0.3,1.3-0.5,2.3-0.5,2.4c1.4,0.1,2.4-0.7,2.9-1.8c2-3.6-1.4-7.4-1.7-10.5   c-0.2-1.7,0.3-2.7,0.6-3.7C25.3,5.8,22.8,5.8,21.6,8.8z"/><path d="M18.2,18.2c0.5-3.9-1.8-5.1-2.3-8.8c-0.2-1.7,0.2-2.7,0.6-3.7c-0.1,0.1-2.6,0.1-3.8,3.1c-1.7,4.4,1.8,7.7,2.4,10.1   c0.6,1.7-0.4,2.8-0.4,2.9C16.8,21.8,17.9,20.2,18.2,18.2z"/></g><text x="0" y="65" fill="#000000" font-size="5px" font-weight="bold" font-family="'Helvetica Neue', Helvetica, Arial-Unicode, Arial, Sans-serif">Created by Vectors Market</text><text x="0" y="70" fill="#000000" font-size="5px" font-weight="bold" font-family="'Helvetica Neue', Helvetica, Arial-Unicode, Arial, Sans-serif">from the Noun Project</text></svg>