<svg xmlns="http://www.w3.org/2000/svg" xmlns:xlink="http://www.w3.org/1999/xlink" version="1.1" x="0px" y="0px" viewBox="0 0 64 80" style="enable-background:new 0 0 64 64;" xml:space="preserve"><g><path d="M58,23.999939h-2v-1c0-0.4834595-0.3497925-0.867981-0.8060303-0.9608765   c0.6824341-1.0927124,1.3745728-2.3965454,1.6917725-3.6060181c1.4365234-0.1289063,2.8017426-0.5019531,4.0683594-1.1123047   c0.2851563-0.1376953,0.4892578-0.402832,0.5478516-0.7143555c0.0595703-0.3115234-0.0332031-0.6328115-0.2480469-0.8657217   l-6.1796875-6.6796875c-0.2148438-0.2329102-0.53125-0.3505859-0.84375-0.3149414   c-0.3154297,0.034668-0.5947266,0.2167969-0.7548828,0.4907227c-0.7060547,1.2128906-1.1826172,2.5473633-1.421875,3.9770508   c-1.6188965,0.2975464-3.5980835,1.2614136-5.3349609,2.3240356c0.0048218-0.0728149,0.0167847-0.1446533,0.0205078-0.2175903   c0.0107422-0.2529297,0.0205078-0.5170898,0.0205078-0.7705078c0-2.1123047-0.453125-4.0673828-1.3095703-5.6547852   c-0.1943359-0.3588867-0.5791016-0.5668945-0.9931641-0.5185547c-0.4189453,0.0478516-0.8076172,0.1176758-1.1113281,0.1972656   c-0.171875,0.0283203-0.34375,0.0712891-0.4492188,0.1088867c-0.4423828,0.1162109-0.875,0.2631836-1.2548828,0.4238281   c-0.1484375,0.0571289-0.3085938,0.1259766-0.4492188,0.1899414c-0.3007813,0.1342773-0.6035156,0.2900391-0.8515625,0.4355469   c-0.3232422,0.1665039-0.6337891,0.3554688-0.9140625,0.5424805c-0.2958984,0.1865234-0.5820313,0.3837891-0.9023438,0.6298828   c-0.0478516,0.034668-0.0927734,0.0698242-0.1347656,0.1064453c-0.1855469,0.1430664-0.3769531,0.2939453-0.4882813,0.4033203   c-0.0415649,0.0327759-0.0791016,0.0723267-0.1195679,0.1065674c-0.0735474-0.1088257-0.1467285-0.2128296-0.2163696-0.3057861   c-0.1699219-0.2485352-0.3623047-0.4975586-0.5449219-0.7104492c-0.1767578-0.2207031-0.3642578-0.4306641-0.5839844-0.6630859   l-0.6464844-0.6264648c-0.1201172-0.1069336-0.2402344-0.2143555-0.3154297-0.2724609   c-0.1474609-0.1352539-0.2978516-0.2558594-0.4033203-0.3237305c-0.3574219-0.2753906-0.7490234-0.5332031-1.1982422-0.7880859   c-0.3515625-0.2006836-0.7939453-0.1669922-1.1132813,0.0849609c-0.2705078,0.2138672-0.5292969,0.449707-0.7753906,0.6962891   c-0.2070313,0.2060547-0.4121094,0.4243164-0.5458984,0.5966797c-0.1552734,0.1665039-0.2919922,0.3427734-0.4257813,0.5292969   C30.9570313,9.8012094,30.90625,9.8685923,30.859375,9.9418344c-0.0927734,0.1279297-0.1806641,0.2573242-0.2783203,0.4033203   c-0.0517578,0.0649414-0.0869141,0.1230469-0.1123047,0.1635742c-0.0908203,0.1401367-0.1757813,0.2866211-0.2587891,0.4301758   l-0.0732422,0.1264648c-0.1687622,0.2886963-0.322937,0.5848389-0.4656372,0.8822632   c-0.1272583-0.2277832-0.2509155-0.4615479-0.3937378-0.6640015c-0.2285156-0.3242188-0.6269531-0.4833984-1.0136719-0.4042969   c-0.2304688,0.0458984-0.4482422,0.1035156-0.6630859,0.1674805c-0.1953125,0.0546875-0.3916016,0.1196289-0.625,0.1982422   c-0.2243652,0.0849609-0.4468384,0.1711426-0.6502075,0.2625732c-0.0010376,0.0004272-0.0020752,0.0001831-0.0031128,0.0006104   c-0.0032959,0.0014038-0.0067749,0.0032959-0.0100708,0.0046997c-0.0004883,0.0002441-0.0011597,0.0004272-0.0016479,0.0006714   c-0.0066528,0.0029297-0.0127563,0.0062256-0.0194092,0.0091553c-0.3870239,0.164856-0.7869263,0.3687134-1.2218018,0.6270752   c-0.0020752,0.0012207-0.003418,0.0031128-0.0054932,0.0043335c-0.2017822,0.1101685-0.3928833,0.2332764-0.536499,0.3311157   c-0.1347656,0.0786133-0.2705078,0.1757813-0.4228516,0.2866211c-0.2001953,0.140625-0.3925781,0.2817383-0.5839844,0.4384766   c-0.0712891,0.0463867-0.1396484,0.1000977-0.2041016,0.1606445c-0.21875,0.1782227-0.4228516,0.362793-0.5693359,0.5068359   c-0.119812,0.0953369-0.2370605,0.2104492-0.3404541,0.3136597c-0.0050659-0.015686-0.0068359-0.0287476-0.012085-0.0446167   c-0.0605469-0.199707-0.1210938-0.3989258-0.1767578-0.5527344c-0.0595703-0.2006836-0.1357422-0.3930664-0.2490234-0.6757813   c-0.0878906-0.2192383-0.1757813-0.4277344-0.2646484-0.6132813c-0.1953125-0.4423828-0.4316406-0.9003906-0.6962891-1.3510742   c-0.0947266-0.1665039-0.1894531-0.3208008-0.2636719-0.4243164c-0.1279297-0.2094727-0.2675781-0.4189453-0.375-0.5541992   c-0.1357422-0.2089844-0.2841797-0.40625-0.4140625-0.5541992c-0.7167969-0.9111328-1.5244141-1.6694336-2.4003906-2.253418   c-0.3369141-0.2246094-0.7753906-0.2236328-1.1123047,0.0019531c-2.7958984,1.8779297-4.8974609,5.5639648-5.3554688,9.3916006   c-0.0001221,0.0009155,0.0001831,0.00177,0.000061,0.0026855c-0.0002441,0.0020752-0.0007935,0.0040283-0.0010376,0.0061035   C11.0283203,17.093689,11,17.5614624,11,17.999939c0,1.0919189,0.1629028,2.5479126,0.4338379,4H9c-0.5527344,0-1,0.4477539-1,1v1   H6c-2.2060547,0-4,1.7944336-4,4v6c0,2.2055664,1.7939453,4,4,4h2v4c0,8.2709961,6.7285156,15,15,15h18   c8.2714844,0,15-6.7290039,15-15v-4h2c2.2060547,0,4-1.7944336,4-4v-6C62,25.7943726,60.2060547,23.999939,58,23.999939z    M52.9609375,15.1200571c0.5048828-0.0102539,0.9228516-0.3955078,0.9746094-0.8979492   c0.0986328-0.9633789,0.3203125-1.8774414,0.6611328-2.7319336l4.1982422,4.5385733   c-0.8789063,0.2753906-1.8066406,0.4267578-2.7705078,0.4516602c-0.5039063,0.0126953-0.9199219,0.3989258-0.9697266,0.9003906   c-0.1054688,1.0556641-0.9306641,2.7602539-2.2294922,4.6191406h-8.1503906   c0.0217285-0.034729,0.034729-0.0621948,0.0559082-0.0964355c0.1958618-0.3165283,0.3746338-0.6195679,0.5163574-0.8908691   l-0.0009766-0.0004883c0.0097656-0.0170898,0.0185547-0.0341797,0.0263672-0.0512695   c0.0009766-0.0014648,0.0009766-0.0029297,0.0019531-0.0043945c0.1806641-0.3608398,0.3857422-0.7900391,0.5449219-1.234375   c0.0859375-0.2358398,0.171875-0.4726563,0.2304688-0.6699219c0.0517578-0.1425781,0.1035156-0.2993164,0.1328125-0.421875   c0.0400391-0.1430664,0.0800781-0.2866211,0.1191406-0.4316406C48.8427734,16.4032593,51.5458984,15.1483774,52.9609375,15.1200571   z M22.6755371,21.4021606c0.0044556-0.0269775,0.0094604-0.0527344,0.013855-0.0796509   c0.005188-0.0317993,0.0115967-0.0637817,0.0166626-0.09552c0.0050049,0.0031128,0.0108032,0.005127,0.0158691,0.0082397   c0.4314575,0.2667847,0.8873291,0.4976196,1.3579102,0.7047729c0.0400391,0.0176392,0.0751953,0.0427246,0.1154785,0.0599365   h-1.6240234C22.6090698,21.8009033,22.6424561,21.6013794,22.6755371,21.4021606z M30.7910156,21.9076538   c0.0199585-0.0766602,0.0311279-0.1574097,0.0498047-0.2347412c0.0645752-0.2676392,0.1231689-0.5372314,0.1721191-0.8115234   c0.0227661-0.1278076,0.0419922-0.2553101,0.0613403-0.3841553c0.0390625-0.2594604,0.0705566-0.519165,0.0953979-0.7809448   c0.0074463-0.0783081,0.0223999-0.1555176,0.0285645-0.2339478c0.0714722,0.0151367,0.1439209,0.022522,0.2156372,0.0361328   c0.1495361,0.0283813,0.2984619,0.0532227,0.4485474,0.0751953c0.1451416,0.0212402,0.2893677,0.0397949,0.4345093,0.0549927   c0.1508789,0.0158081,0.3006592,0.0275879,0.4510498,0.0368042c0.0776978,0.0047607,0.1560059,0.0160522,0.2334595,0.019043   c-0.0323486,0.1112671-0.0628052,0.2371826-0.0949097,0.3527222c-0.0463867,0.1669922-0.0908203,0.3303223-0.1358643,0.5050049   c-0.053894,0.2092896-0.1030884,0.4215088-0.1533813,0.6395264c-0.0452271,0.1955566-0.088623,0.3875122-0.1296387,0.5881958   c-0.0158691,0.0779419-0.0355225,0.1514282-0.0506592,0.2299805h-1.6035156   C30.8056641,21.9691772,30.7978516,21.9384155,30.7910156,21.9076538z M34.5134888,21.7757568   c0.0767822-0.3421631,0.1633911-0.692749,0.2598877-1.0500488c0.0344238-0.1275635,0.0687256-0.2547607,0.1055298-0.3835449   c0.130249-0.4555054,0.2697754-0.9159546,0.4267578-1.3754272c0.3212891-0.928894,0.6643677-1.7599487,0.9805298-2.3908691   c0.4828491,0.5569458,1.0175171,1.0715942,1.6132202,1.5266113c0.2128906,0.1635742,0.4248047,0.3183594,0.6425781,0.4580078   c0.0244141,0.0200195,0.0498047,0.0390625,0.0751953,0.0566406C38.9003906,18.809021,39.1943359,18.9789429,39.5,19.1376343   c1.2060547,0.6254883,2.4677734,1.0205078,3.7509766,1.1748047c0.0293579,0.00354,0.0593262,0.0020142,0.0886841,0.0053101   c-0.1016235,0.1833496-0.2067871,0.369873-0.3353882,0.5765991c-0.0291748,0.046936-0.0565186,0.0921021-0.0870361,0.1401367   c-0.1777344,0.2797241-0.378479,0.5780029-0.5978394,0.8897705c-0.0175171,0.0249023-0.0362549,0.0505981-0.0540161,0.0756836   h-7.8032837C34.4777832,21.9265747,34.4968872,21.8500977,34.5134888,21.7757568z M38.8271484,13.2670298   c0.1015625-0.1010742,0.2021484-0.1953125,0.3769531-0.3378906c0.1357422-0.1279297,0.2900391-0.2451172,0.4833832-0.3974609   c0.0009918-0.0009766,0.0918121-0.0688477,0.0927887-0.0698242c0.234375-0.1806641,0.4697266-0.3427734,0.734375-0.5092773   c0.2392578-0.1601563,0.4873047-0.3110352,0.7861328-0.4672852c0.2294922-0.1323242,0.4677734-0.2558594,0.7158203-0.3666992   c0.1113281-0.0512695,0.2304688-0.1025391,0.3720703-0.1572266c0.3232422-0.1362305,0.6650391-0.2519531,1.0800781-0.3637695   c0.0683594-0.0229492,0.1367188-0.0395508,0.2841797-0.0673828c0.0791016-0.0200195,0.1591797-0.0385742,0.2402344-0.0556641   c0.5029297,1.1777344,0.7666016,2.5712891,0.7666016,4.0751953c0,0.2270508-0.0097656,0.4628906-0.0185547,0.6787109   c-0.0371094,0.7207031-0.1367188,1.444335-0.2958984,2.1479483c-0.0556641,0.2436523-0.1220703,0.4780273-0.1972656,0.746582   c-0.0182495,0.0743408-0.0436401,0.149231-0.0795898,0.2531738c-0.0005493,0.0016479-0.0010376,0.0029297-0.0015869,0.0046387   c-0.2265015-0.0087891-0.453064-0.0268555-0.6776123-0.0537109c-1.0429688-0.1259766-2.0761719-0.4501953-3.0683594-0.9643555   c-0.2001953-0.1044922-0.3955078-0.2143555-0.5839844-0.3364258c-0.0419922-0.0371094-0.0878906-0.0708008-0.1376953-0.1010742   c-0.1982422-0.1206055-0.3886719-0.2602539-0.5830078-0.4101563c-0.6508789-0.4976196-1.2218018-1.0717154-1.7030029-1.7108755   c0.0300903-0.0387573,0.0584717-0.0794067,0.0888062-0.1177368c0.1867065-0.2366943,0.3791504-0.4562378,0.5725708-0.6694946   c0.0726929-0.0796509,0.1413574-0.1660767,0.2154541-0.243103c0.0024414-0.0025635,0.003418-0.0059204,0.0058594-0.0084839   c0.0454102-0.036438,0.0897827-0.0742798,0.1279297-0.117981C38.5244141,13.5316782,38.6337891,13.430604,38.75,13.336854   C38.7773438,13.3148813,38.8027344,13.2914438,38.8271484,13.2670298z M30.9384766,14.1161509   c0.0107422-0.0307617,0.0205078-0.0625,0.0292969-0.0942383c0.0673828-0.1845703,0.1367188-0.3637695,0.2216797-0.5634766   c0.1875-0.4746094,0.4150391-0.9404297,0.6728516-1.3828125l0.0791016-0.1347656   c0.0634766-0.1103516,0.1289063-0.2236328,0.2255859-0.3764648c0.0234375-0.0292969,0.0449219-0.059082,0.0615234-0.0839844   c0.0859375-0.1293945,0.171875-0.2587891,0.2685547-0.4033203c0.0400391-0.0400391,0.0771484-0.0834961,0.109375-0.1298828   c0.09375-0.1323242,0.1865234-0.2583008,0.3447266-0.4326172c0.1367188-0.1708984,0.2910156-0.3325195,0.4462891-0.487793   c0.0292969-0.0292969,0.0585938-0.0581055,0.0878906-0.0869141c0.1396484,0.0942383,0.2773438,0.1938477,0.4199219,0.3022461   c0.078125,0.0517578,0.1484375,0.1108398,0.2646484,0.2148438c0.0957031,0.0771484,0.1904297,0.1630859,0.2861328,0.2480469   l0.546875,0.53125c0.1611328,0.1704102,0.3134766,0.340332,0.4775391,0.5439453   c0.15625,0.1821289,0.3037109,0.3735352,0.4580078,0.5976563c0.1318359,0.1757813,0.2548828,0.3598633,0.3916016,0.5786133   c-0.0336914,0.0389404-0.0628662,0.0847168-0.0962524,0.1241455c-0.3049927,0.3604126-0.600769,0.7333374-0.8754272,1.1282959   c-0.0005493,0.0007935-0.0006714,0.001709-0.0012207,0.0025024c-0.0020752,0.0030518-0.0045166,0.0056763-0.0065918,0.008728   c-0.2744141,0.4072266-0.5224609,0.8188477-0.734375,1.222168c-0.0896606,0.1694336-0.180542,0.3546753-0.2718506,0.5487061   c-0.0322266,0.0684195-0.0645142,0.1419058-0.0968628,0.2131948c-0.0601196,0.1325073-0.1201782,0.2678833-0.180542,0.409729   c-0.0366211,0.0861816-0.0731812,0.1738892-0.1098022,0.2633057c-0.0585327,0.1427612-0.1168213,0.2897949-0.1751099,0.4403076   c-0.034729,0.0897827-0.069397,0.1778564-0.1040039,0.2701416c-0.0111694,0.0298462-0.022522,0.0574341-0.0336914,0.0875244   c-0.0510864,0.0013428-0.1019287,0.005127-0.1530151,0.0056152c-0.3304443,0.0020142-0.6607666-0.0103149-0.9883423-0.0438232   c-0.0360718-0.0037231-0.0725098-0.0032959-0.1085205-0.0074463c-0.3677979-0.0421143-0.7302246-0.1120605-1.0864258-0.2006226   c-0.0321045-0.0079956-0.0630493-0.019104-0.0949707-0.0274048c-0.008728-0.1507568-0.019104-0.2983398-0.0343628-0.4382324   c-0.0117188-0.2524414-0.0361328-0.5048828-0.0830078-0.7456055c-0.0009766-0.0068359-0.0019531-0.0141602-0.0039063-0.0209961   c-0.0322266-0.2998037-0.09375-0.5903311-0.1630859-0.9013662c-0.0019531-0.0146484-0.0058594-0.0292969-0.0087891-0.0439453   l0.0009766-0.0004883c-0.0429688-0.2075195-0.0957031-0.4150391-0.1523438-0.6186523   C30.8203125,14.4603891,30.875,14.2880259,30.9384766,14.1161509z M23.7792969,15.6454477   c0.0712891-0.0722656,0.1416016-0.1455078,0.2802734-0.2607422c0.1796875-0.1713867,0.3583984-0.3330078,0.5478516-0.4858398   c0.0117188-0.0097656,0.0234375-0.0195313,0.0351563-0.0292969c0.0341797-0.0224609,0.0673828-0.046875,0.0996094-0.0737305   c0.1679688-0.1411133,0.3369141-0.2641602,0.5654297-0.4262695c0.0722656-0.0527344,0.1484375-0.1103516,0.2783203-0.1879883   c0.1503906-0.1005859,0.2998047-0.203125,0.5048828-0.3120117c0.3349609-0.1987305,0.6679688-0.3696289,1.0302734-0.527832   c0.1816406-0.0820313,0.3730469-0.1542969,0.5263672-0.2133789c0.1142578-0.0380859,0.2294922-0.0766602,0.3496094-0.1132813   c0.0332031,0.0610352,0.0654144,0.125,0.0996094,0.1918945c0.0820313,0.1479492,0.15625,0.2954102,0.2285156,0.4658203   c0.1728516,0.3930664,0.3164063,0.7851563,0.4257813,1.1665039c0.0058594,0.0302734,0.0136719,0.0605469,0.0224609,0.0898438   c0.0048828,0.0200195,0.0107422,0.0405273,0.0175781,0.0615234h-0.0009766c0.0625,0.2138672,0.125,0.4360352,0.1699219,0.6586914   c0.0029297,0.0112305,0.0058594,0.0229492,0.0078125,0.0341797c0.0039063,0.0195313,0.0068359,0.0380859,0.0107422,0.0551758   c0.0498047,0.2255859,0.1015625,0.4511709,0.1269531,0.6850576c0.0029297,0.027832,0.0068359,0.0551758,0.0117188,0.0820313   c0.0029297,0.0273438,0.0068359,0.0541992,0.0126953,0.0810547c0.0302734,0.1508789,0.0439453,0.3100586,0.0546875,0.5249023   c0.0379639,0.3632813,0.0467529,0.71698,0.055542,1.0713501c0,0.0004272-0.000061,0.0008545-0.000061,0.0012817   c0.0059204,0.3931885-0.0153809,0.7905273-0.0484009,1.1866455c-0.0079346,0.0938721-0.0153809,0.1878052-0.0254517,0.2816772   c-0.0410156,0.3845215-0.097229,0.7670898-0.1738892,1.1420288c-0.0042725,0.0210571-0.0102539,0.041687-0.0146484,0.0626831   c-0.0082397,0.0004883-0.0163574,0.0018311-0.0246582,0.0023193c-0.3250122,0.0185547-0.6529541,0.0154419-0.9830933-0.0030518   c-0.0640869-0.0036011-0.128418-0.008728-0.192688-0.0137939c-0.3353882-0.026062-0.6726074-0.0653076-1.0135498-0.1300659   c-0.1240234-0.0249023-0.2490234-0.0498047-0.3662109-0.0791016c-0.2802734-0.074707-0.5703125-0.1586914-0.8496094-0.2519531   c-0.1318359-0.0439453-0.2626953-0.0966797-0.3945313-0.1494141c-0.439209-0.1765747-0.8557739-0.392395-1.2564697-0.6316528   c-0.1256714-0.0750732-0.2414551-0.1640625-0.3630371-0.2450562c-0.1949463-0.1299438-0.3809204-0.2717896-0.5648804-0.4168091   C22.9888916,18.6217041,23,18.3074341,23,17.999939c0-0.4350586-0.0283203-0.8911133-0.0898438-1.4189453l-0.0008545-0.0060425   c0.093689-0.109314,0.1952515-0.223999,0.3123779-0.3494263C23.3857422,16.0267944,23.5683594,15.8461313,23.7792969,15.6454477z    M18.4140625,10.6947641c0.1005859,0.1157227,0.1923828,0.2387695,0.3212891,0.4326172   c0.1083984,0.1416016,0.2089844,0.2924805,0.3339844,0.4941406c0.0732422,0.1054688,0.1367188,0.2109375,0.2080078,0.3344727   c0.2314453,0.3955078,0.4326172,0.7851563,0.6083984,1.1816406c0.0810547,0.1713867,0.1533203,0.3427734,0.2617188,0.6123047   c0.0556641,0.1396484,0.1123047,0.2744141,0.1689453,0.4614258c0.0605469,0.1713867,0.1113281,0.3427734,0.1855469,0.5854492   c0.0673828,0.2036133,0.1181641,0.3994141,0.1640625,0.612793c0.0361328,0.1518555,0.0722656,0.3037109,0.1074219,0.4970703   c0.0183716,0.0819092,0.0306396,0.1688223,0.0462646,0.2540884c-2.3570557,1.1157837-5.2453613,1.1069336-7.6334839-0.0297852   c0.0145264-0.0808105,0.0247803-0.1618643,0.0410156-0.2424917c0.0307617-0.1530762,0.0661621-0.3053589,0.1029053-0.4573975   c0.0485229-0.2008057,0.1011963-0.4005737,0.159729-0.598938c0.0446167-0.151123,0.0916748-0.3012695,0.1418457-0.4505615   c0.0655518-0.1951294,0.1365356-0.3880615,0.2112427-0.5794067c0.0571899-0.1466064,0.1151733-0.2926025,0.1774902-0.4365234   c0.0817261-0.1886597,0.1698608-0.373291,0.2599487-0.5566406c0.0679932-0.1383057,0.1351929-0.2770996,0.2077026-0.4119873   c0.0978394-0.1819458,0.2028809-0.3574829,0.3085938-0.5324097c0.076416-0.1264038,0.1506958-0.2549438,0.230957-0.3772583   c0.1152954-0.1757813,0.2382813-0.3422241,0.361145-0.5087891c0.0809326-0.1096802,0.1586914-0.2235718,0.2426758-0.3289185   c0.1409302-0.1768188,0.289978-0.340332,0.4389038-0.5039063c0.0744629-0.0817261,0.1450806-0.1700439,0.2213745-0.2481689   c0.229187-0.2346802,0.4657593-0.454895,0.7102051-0.65448C17.4951172,9.6430063,17.9638672,10.1244516,18.4140625,10.6947641z    M13.0081787,18.2243042c1.2774658,0.5045776,2.6447144,0.7756348,4.0318604,0.7756348   c1.3565063,0,2.7022705-0.2676392,3.9474487-0.7516479c-0.0068359,0.3501587-0.0182495,0.7038574-0.053894,1.0700073   c-0.0455933,0.4949951-0.1174927,1.0215454-0.2010498,1.5506592c-0.0253296,0.1602783-0.0560913,0.3206787-0.0844727,0.4816284   c-0.0385132,0.2183838-0.0848999,0.4324341-0.1287231,0.649353h-7.0525513   C13.1936035,20.6412354,13.0289917,19.2724609,13.0081787,18.2243042z M6,35.999939c-1.1025391,0-2-0.8969727-2-2v-6   c0-1.1030273,0.8974609-2,2-2h2v10H6z M54,41.999939c0,7.168457-5.8320313,13-13,13H23c-7.1679688,0-13-5.831543-13-13v-5v-9h14   c0.5527344,0,1-0.4477539,1-1s-0.4472656-1-1-1H10v-1v-1h2.6601563h8.6796875h8.0498047h0.6601563h3.2099609h9.5205078h10.5595703   H54v1v12V41.999939z M60,33.999939c0,1.1030273-0.8974609,2-2,2h-2v-10h2c1.1025391,0,2,0.8969727,2,2V33.999939z"/><path d="M15.2900391,13.289979c-0.0898438,0.0996094-0.1601563,0.199707-0.2099609,0.3295898   C15.0302734,13.739686,15,13.8695688,15,13.9999399c0,0.2700195,0.109375,0.5200195,0.2900391,0.7099609   C15.4794922,14.8895884,15.7294922,14.9999399,16,14.9999399c0.2695313,0,0.5195313-0.1103516,0.7001953-0.2900391   C16.8896484,14.5199594,17,14.2597055,17,13.9999399c0-0.1303711-0.0302734-0.2602539-0.0800781-0.3803711   c-0.0498047-0.1298828-0.1201172-0.2299805-0.2197266-0.3295898C16.3398438,12.9198618,15.6601563,12.9198618,15.2900391,13.289979   z"/><path d="M25.2998047,18.0599976c0.0595703,0,0.1298828-0.0102539,0.1904297-0.0200195   c0.0693359-0.0200195,0.1298828-0.0302734,0.1894531-0.0600586c0.0605469-0.0200195,0.1201172-0.0600586,0.1699219-0.090332   c0.0605469-0.0400391,0.1103516-0.0795898,0.1601563-0.1298828c0.1796875-0.1801758,0.2900391-0.4399414,0.2900391-0.699707   c0-0.2602539-0.1103516-0.5200195-0.2900391-0.7104492c-0.0498047-0.0498047-0.0996094-0.0898438-0.1601563-0.1196289   c-0.0498047-0.0400391-0.109375-0.0703125-0.1699219-0.1000977c-0.0595703-0.0200195-0.1201172-0.0400391-0.1894531-0.050293   c-0.3203125-0.0698242-0.6708984,0.0400391-0.9003906,0.2700195c-0.0898438,0.090332-0.1601563,0.2001953-0.2099609,0.3300781   c-0.0498047,0.1201172-0.0800781,0.25-0.0800781,0.3803711c0,0.2597656,0.1103516,0.5195313,0.2900391,0.699707   C24.7802734,17.949646,25.0400391,18.0599976,25.2998047,18.0599976z"/><path d="M32.9101563,15.7597055c0.2597656,0,0.5195313-0.1098633,0.6992188-0.2900391   c0.1904297-0.1899414,0.3007813-0.449707,0.3007813-0.7099609c0-0.2597656-0.1103516-0.5200195-0.3007813-0.7099609   c-0.0898438-0.0898438-0.1992188-0.1601563-0.3193359-0.2099609c-0.3701172-0.1499023-0.8105469-0.0698242-1.0898438,0.2099609   c-0.1806641,0.1899414-0.2900391,0.4501953-0.2900391,0.7099609c0,0.2700195,0.109375,0.5200195,0.2900391,0.7099609   C32.3896484,15.6498423,32.6494141,15.7597055,32.9101563,15.7597055z"/><path d="M40.8994141,15.2196665c0.2607422,0,0.5205078-0.1000977,0.7099609-0.2900391   c0.1806641-0.1899414,0.2900391-0.449707,0.2900391-0.7099609c0-0.2597656-0.109375-0.5200195-0.2900391-0.7099609   c-0.3798828-0.3701172-1.0400391-0.3701172-1.4199219,0c-0.0898438,0.1000977-0.1591797,0.2099609-0.2099609,0.3300781   c-0.0498047,0.1201172-0.0800781,0.25-0.0800781,0.3798828c0,0.2700195,0.1103516,0.5200195,0.2900391,0.7099609   C40.3798828,15.1195688,40.6396484,15.2196665,40.8994141,15.2196665z"/></g><text x="0" y="79" fill="#000000" font-size="5px" font-weight="bold" font-family="'Helvetica Neue', Helvetica, Arial-Unicode, Arial, Sans-serif">Created by Edwin PM</text><text x="0" y="84" fill="#000000" font-size="5px" font-weight="bold" font-family="'Helvetica Neue', Helvetica, Arial-Unicode, Arial, Sans-serif">from the Noun Project</text></svg>