<svg xmlns="http://www.w3.org/2000/svg" xmlns:xlink="http://www.w3.org/1999/xlink" version="1.1" x="0px" y="0px" viewBox="0 0 100 125" style="enable-background:new 0 0 100 100;" xml:space="preserve"><style type="text/css">
	.st0{fill-rule:evenodd;clip-rule:evenodd;}
</style><path d="M91.9594803,76.5033875l-0.5283585-1.0567169c-1.4789429-3.4861755-19.6493454-8.7682495-21.1283264-8.873703  l-1.1620941,0.1053772c-2.2188492,0.4222488-4.6484146,2.4295654-9.4020996,6.5495911  c-0.9506035,0.8452225-2.2188492,1.0567169-3.380909,0.4222488c-6.232666-3.4861755-13.8388672-10.4587135-17.6421471-14.6841888  c-4.1200256-4.5422134-9.0851822-12.0431442-11.409296-18.065094c-0.422245-1.1620941,0-2.4295654,0.8452263-3.2747002  c5.387537-4.85989,7.7116528-7.1832523,7.9231243-9.7190285c0.1053772-1.4789448-3.0632286-20.1775494-6.3388748-21.9734573  l-0.9506035-0.6337366c-2.1126442-1.3735676-5.2820816-3.3809094-8.7682533-2.6410406  c-0.8452263,0.2114906-1.6904373,0.5283592-2.4295692,0.9506049C15.2639399,5.0899777,9.4534607,9.1046047,6.8124199,14.2804794  c-1.5843225,3.2747021-2.3241153,32.9601822,19.8606243,57.9972534  C48.6465034,97.103508,75.7963943,98.159935,79.8107758,97.3147888h0.1053772l0.3168716-0.1053772  C85.7265701,95.202034,90.375,90.0261612,92.1707153,87.807312c3.274704-3.9085541,1.0567245-8.6629868-0.2114944-11.3040314  L91.9594803,76.5033875z"/><text x="0" y="115" fill="#000000" font-size="5px" font-weight="bold" font-family="'Helvetica Neue', Helvetica, Arial-Unicode, Arial, Sans-serif">Created by safana vereen</text><text x="0" y="120" fill="#000000" font-size="5px" font-weight="bold" font-family="'Helvetica Neue', Helvetica, Arial-Unicode, Arial, Sans-serif">from the Noun Project</text></svg>