<svg xmlns="http://www.w3.org/2000/svg" xmlns:xlink="http://www.w3.org/1999/xlink" xml:space="preserve" style="shape-rendering:geometricPrecision;text-rendering:geometricPrecision;image-rendering:optimizeQuality;" viewBox="0 0 0.312732 0.21703" x="0px" y="0px" fill-rule="evenodd" clip-rule="evenodd"><defs><style type="text/css">
   
    .fil0 {fill:black}
   
  </style></defs><g><path class="fil0" d="M0.110706 0.0265673c0.010197,-0.0111183 0.02252,-0.0203782 0.0383706,-0.0265673 0.0274177,0.0168506 0.0588708,0.0242641 0.0822412,0.0505558l-0.015449 0.0108742c0.00978359,0.00314965 0.0198821,0.0047914 0.0305909,0.00363784 0.0158467,-0.0234727 0.0329374,-0.0373548 0.0605559,-0.0442761 0.000728356,0.0222562 -0.00273625,0.0396462 -0.0158467,0.0582173 0.0135907,0.0177404 0.019142,0.0332721 0.0215633,0.0551936 -0.0237326,-0.00607488 -0.0443982,-0.0135592 -0.0636307,-0.0294059 -0.00405123,0.00330319 -0.00816546,0.00636228 -0.0123427,0.00919303 0.00294886,0.0104923 0.00752372,0.0294886 0.00268114,0.03478 -0.0119096,-0.00691347 -0.0247011,-0.0125159 -0.0386658,-0.0163349 -0.0122206,0.00448037 -0.0247917,0.00746466 -0.0376068,0.00918516l-0.00057481 0.0320043c-0.0127206,-0.0122167 -0.0305949,-0.0225554 -0.0436423,-0.030709 -0.01576,-0.00102363 -0.0316894,-0.0034843 -0.0476187,-0.00701584 0.00727175,-0.00988989 0.0113899,-0.0169845 0.0127482,-0.0296933 -0.0044725,0.0118309 -0.0112994,0.020457 -0.022205,0.0269452 -0.0205869,-0.00151577 -0.0396737,-0.00761427 -0.0576582,-0.0176656 -0.00558275,-0.00657095 -0.0053229,-0.0136262 -0.000952768,-0.0207995 0.0287287,-0.0310122 0.0650914,-0.0639103 0.107442,-0.068119zm-0.0630913 0.0483156c-0.00537408,0 -0.00972453,0.00425596 -0.00972453,0.00951587 0,0.00524022 0.00435045,0.00949618 0.00972453,0.00949618 0.00538196,0 0.00972453,-0.00425596 0.00972453,-0.00949618 0,-0.00525991 -0.00434257,-0.00951587 -0.00972453,-0.00951587z"/><path class="fil0" d="M0.0476148 0.0778199c-0.00371658,0 -0.00672056,0.00294098 -0.00672056,0.00657095 0,0.00362603 0.00300397,0.00657095 0.00672056,0.00657095 0.00371658,0 0.00672449,-0.00294492 0.00672449,-0.00657095 0,-0.00362997 -0.00300791,-0.00657095 -0.00672449,-0.00657095z"/></g><text x="0" y="15.173624" fill="#000000" font-size="5px" font-weight="bold" font-family="'Helvetica Neue', Helvetica, Arial-Unicode, Arial, Sans-serif">Created by Andy Mc</text><text x="0" y="20.173624" fill="#000000" font-size="5px" font-weight="bold" font-family="'Helvetica Neue', Helvetica, Arial-Unicode, Arial, Sans-serif">from the Noun Project</text></svg>