<svg xmlns="http://www.w3.org/2000/svg" xmlns:xlink="http://www.w3.org/1999/xlink" version="1.1" x="0px" y="0px" viewBox="0 0 100 125" enable-background="new 0 0 100 100" xml:space="preserve"><path d="M40.477,42.008c2.08,0,3.766-1.686,3.766-3.766s-1.687-3.766-3.766-3.766c-2.08,0-3.766,1.686-3.766,3.766  S38.397,42.008,40.477,42.008z M65.113,11.964c13.391,4.352,9.875,14.228,9.875,14.228c-3.682,0.334-12.35-4.687-12.35-4.687  c-0.465,10.21,18.68,21.298,18.68,21.298c-4.334,1.051-8.312,3.254-10.428,4.566c-1.644-2.831-4.291-5.003-7.465-6.016  c-0.921,1.151-2.318,1.904-3.904,1.904c-1.858,0-3.467-1.029-4.332-2.537H44.811c-0.866,1.508-2.474,2.537-4.333,2.537  c-1.585,0-2.983-0.753-3.904-1.904c-3.173,1.012-5.821,3.185-7.464,6.016c-2.116-1.312-6.094-3.516-10.428-4.566  c0,0,19.144-11.088,18.679-21.298c0,0-8.667,5.021-12.349,4.687c0,0-3.515-9.875,9.875-14.228  C17.647,5.103-3.149,32.962,8.274,38.745c0,0-3.362,17.045,19.032,16.114v4.199l-9.333,3.81c-0.408,0.166-0.743,0.472-0.949,0.86  l-5.888,11.147c-0.484,0.915-0.134,2.049,0.782,2.532c0.28,0.148,0.579,0.218,0.874,0.218c0.673,0,1.324-0.362,1.66-1l5.57-10.544  l7.319-2.986c0.029,0.586,0.09,1.165,0.193,1.729l-5.962,3.212c-0.43,0.232-0.753,0.621-0.9,1.088l-4.142,13.18  c-0.31,0.989,0.238,2.041,1.227,2.353c0.187,0.059,0.376,0.086,0.563,0.086c0.797,0,1.536-0.511,1.788-1.312l3.914-12.455  l4.726-2.545c0.782,1.545,1.852,2.914,3.145,4.039l-3.828,2.717c-0.453,0.32-0.74,0.824-0.784,1.379l-0.85,10.522  c-0.084,1.032,0.685,1.938,1.718,2.021c0.051,0.004,0.102,0.007,0.153,0.007c0.967,0,1.788-0.743,1.867-1.724l0.78-9.652  l4.366-3.098c1.628,0.709,3.424,1.108,5.313,1.108h18.75c1.89,0,3.687-0.399,5.313-1.108l4.365,3.098l0.779,9.652  c0.08,0.979,0.9,1.724,1.867,1.724c0.052,0,0.102-0.003,0.152-0.007c1.033-0.082,1.803-0.987,1.719-2.021l-0.85-10.522  c-0.045-0.555-0.332-1.059-0.785-1.379l-3.828-2.717c1.293-1.125,2.363-2.494,3.146-4.039l4.728,2.545l3.914,12.455  c0.25,0.801,0.99,1.312,1.787,1.312c0.187,0,0.375-0.027,0.562-0.086c0.986-0.312,1.536-1.362,1.227-2.353l-4.143-13.18  c-0.146-0.467-0.471-0.855-0.898-1.088l-5.963-3.212c0.104-0.564,0.163-1.144,0.192-1.729l7.317,2.986l5.57,10.544  c0.336,0.638,0.986,1,1.66,1c0.294,0,0.594-0.069,0.874-0.218c0.915-0.483,1.265-1.617,0.781-2.532l-5.89-11.147  c-0.205-0.39-0.541-0.694-0.949-0.86l-9.332-3.81v-4.199c22.394,0.931,19.031-16.114,19.031-16.114  C103.148,32.962,82.354,5.103,65.113,11.964z M59.521,42.008c2.08,0,3.768-1.686,3.768-3.766s-1.688-3.766-3.768-3.766  c-2.078,0-3.766,1.686-3.766,3.766S57.443,42.008,59.521,42.008z"/><text x="0" y="115" fill="#000000" font-size="5px" font-weight="bold" font-family="'Helvetica Neue', Helvetica, Arial-Unicode, Arial, Sans-serif">Created by Kevin</text><text x="0" y="120" fill="#000000" font-size="5px" font-weight="bold" font-family="'Helvetica Neue', Helvetica, Arial-Unicode, Arial, Sans-serif">from the Noun Project</text></svg>