<svg xmlns="http://www.w3.org/2000/svg" xmlns:xlink="http://www.w3.org/1999/xlink" version="1.1" x="0px" y="0px" viewBox="0 0 66 82.5" style="enable-background:new 0 0 66 66;" xml:space="preserve"><path d="M64.63,45.24c-0.44-0.94-1.21-1.64-2.18-2c-0.95-0.34-1.97-0.31-2.89,0.1l-13.7,4.29c0.03-0.17,0.06-0.34,0.07-0.51  c0.07-1.03-0.3-2.03-1.03-2.81c-0.78-0.83-1.87-1.3-3.01-1.3h-9.1l-7.89-2.88c-1.98-0.72-4.06-1.09-6.17-1.09H15v-2.31  c0-1.21-0.99-2.2-2.2-2.2H3.2c-1.21,0-2.2,0.99-2.2,2.2v23.53c0,1.21,0.99,2.2,2.2,2.2h9.6c1.21,0,2.2-0.99,2.2-2.2v-2.44h1.52  c0.58,0,1.14,0.1,1.67,0.29l16.94,6.03c0.54,0.19,1.11,0.28,1.67,0.28c0.86,0,1.72-0.22,2.48-0.66l23.49-13.38  c0.87-0.41,1.54-1.11,1.92-2c0.04-0.08,0.07-0.15,0.08-0.19C65.12,47.23,65.07,46.15,64.63,45.24z M13,40.04l0,16.79  c0,0,0,0.01,0,0.01v3.43c0,0.11-0.09,0.2-0.2,0.2H3.2c-0.11,0-0.2-0.09-0.2-0.2V36.73c0-0.11,0.09-0.2,0.2-0.2h9.6  c0.11,0,0.2,0.09,0.2,0.2V40.04z M62.89,47.51c-0.01,0.02-0.02,0.05-0.03,0.07c-0.18,0.45-0.51,0.79-1.01,1.04L38.29,62.04  c-0.76,0.43-1.66,0.51-2.49,0.22l-16.15-5.75l-0.77-0.28c-0.75-0.27-1.54-0.41-2.36-0.41H15V41.04h3.73c1.88,0,3.72,0.33,5.48,0.97  l8.05,2.94c0.11,0.04,0.23,0.06,0.34,0.06h9.27c0.58,0,1.15,0.25,1.55,0.67c0.35,0.37,0.53,0.84,0.5,1.31  c-0.03,0.45-0.22,0.88-0.54,1.2c-0.16,0.15-0.33,0.28-0.53,0.37l-0.51,0.16c-0.1,0.02-0.2,0.02-0.3,0.02H32.1c-0.55,0-1,0.45-1,1  s0.45,1,1,1h9.96c0.53,0,1.04-0.11,1.52-0.31l16.64-5.21c0.04-0.01,0.08-0.03,0.13-0.05c0.45-0.21,0.96-0.23,1.43-0.06  c0.47,0.17,0.84,0.51,1.06,0.97C63.03,46.52,63.06,47.03,62.89,47.51z"/><path d="M8,52.43c-1.65,0-3,1.35-3,3s1.35,3,3,3s3-1.35,3-3S9.65,52.43,8,52.43z M8,56.43c-0.55,0-1-0.45-1-1s0.45-1,1-1  c0.56,0,1,0.44,1,1C9,55.98,8.55,56.43,8,56.43z"/><path d="M39.18,3.57c8.12,0.56,14.61,6.86,15.65,14.74l-2.52-2.1c-0.43-0.36-1.06-0.3-1.41,0.13c-0.35,0.42-0.3,1.05,0.13,1.41  l4.33,3.62c0.18,0.15,0.41,0.23,0.64,0.23c0.03,0,0.06,0,0.09,0c0.26-0.02,0.51-0.15,0.68-0.35l3.61-4.32  c0.35-0.42,0.3-1.05-0.13-1.41c-0.43-0.35-1.05-0.3-1.41,0.13l-2.03,2.43C55.66,9.24,48.4,2.2,39.32,1.57  c-0.55-0.02-1.03,0.38-1.07,0.93C38.22,3.05,38.63,3.53,39.18,3.57z"/><path d="M38,39.53c0.55,0,1-0.45,1-1s-0.45-1-1-1c-9.37,0-17-7.63-17-17c0-0.95,0.08-1.9,0.23-2.82c0.09-0.54-0.28-1.06-0.82-1.15  c-0.55-0.1-1.06,0.28-1.15,0.82C19.08,18.41,19,19.47,19,20.53C19,31,27.52,39.53,38,39.53z"/><path d="M28.27,6.38c0.19,0,0.37-0.05,0.54-0.16c0.79-0.51,1.63-0.96,2.5-1.33c0.51-0.22,0.74-0.8,0.53-1.31  c-0.22-0.51-0.81-0.75-1.31-0.53c-0.96,0.41-1.9,0.91-2.79,1.48c-0.46,0.3-0.6,0.92-0.3,1.38C27.62,6.22,27.94,6.38,28.27,6.38z"/><path d="M33.75,4.03c0.08,0,0.16-0.01,0.24-0.03c0.92-0.22,1.86-0.37,2.8-0.43c0.55-0.04,0.97-0.52,0.93-1.07s-0.5-0.97-1.07-0.93  c-1.05,0.07-2.1,0.24-3.12,0.48c-0.54,0.13-0.87,0.67-0.74,1.21C32.89,3.72,33.3,4.03,33.75,4.03z"/><path d="M20.65,15.58c0.11,0.04,0.22,0.05,0.33,0.05c0.42,0,0.8-0.26,0.95-0.67c0.31-0.89,0.69-1.76,1.15-2.59  c0.27-0.48,0.09-1.09-0.4-1.36c-0.49-0.27-1.09-0.09-1.36,0.4c-0.51,0.93-0.94,1.9-1.28,2.89C19.86,14.83,20.13,15.4,20.65,15.58z"/><path d="M23.85,10.4c0.3,0,0.59-0.13,0.79-0.38c0.58-0.74,1.23-1.44,1.93-2.07c0.41-0.37,0.44-1,0.07-1.41  c-0.37-0.41-1-0.44-1.41-0.07c-0.78,0.71-1.5,1.49-2.15,2.31c-0.34,0.43-0.27,1.06,0.17,1.4C23.41,10.33,23.63,10.4,23.85,10.4z"/><path d="M38,31.53c6.07,0,11-4.93,11-11s-4.93-11-11-11s-11,4.93-11,11S31.93,31.53,38,31.53z M38,11.53c4.96,0,9,4.04,9,9  s-4.04,9-9,9s-9-4.04-9-9S33.03,11.53,38,11.53z"/><path d="M38,24.44c-0.81,0-1.46-0.66-1.46-1.46c0-0.55-0.45-1-1-1s-1,0.45-1,1c0,1.56,1.04,2.87,2.46,3.3v0.25c0,0.55,0.45,1,1,1  s1-0.45,1-1v-0.25c1.42-0.43,2.46-1.74,2.46-3.3c0-1.91-1.55-3.46-3.46-3.46c-0.81,0-1.46-0.66-1.46-1.46  c0-0.81,0.66-1.46,1.46-1.46s1.46,0.66,1.46,1.46c0,0.55,0.45,1,1,1s1-0.45,1-1c0-1.56-1.04-2.87-2.46-3.3v-0.23c0-0.55-0.45-1-1-1  s-1,0.45-1,1v0.23c-1.42,0.43-2.46,1.74-2.46,3.3c0,1.91,1.55,3.46,3.46,3.46c0.81,0,1.46,0.66,1.46,1.46  C39.46,23.78,38.8,24.44,38,24.44z"/><text x="0" y="81" fill="#000000" font-size="5px" font-weight="bold" font-family="'Helvetica Neue', Helvetica, Arial-Unicode, Arial, Sans-serif">Created by Candy Design</text><text x="0" y="86" fill="#000000" font-size="5px" font-weight="bold" font-family="'Helvetica Neue', Helvetica, Arial-Unicode, Arial, Sans-serif">from the Noun Project</text></svg>