<svg xmlns="http://www.w3.org/2000/svg" xmlns:xlink="http://www.w3.org/1999/xlink" version="1.1" x="0px" y="0px" viewBox="0 0 128 160" style="enable-background:new 0 0 128 128;" xml:space="preserve"><g><path d="M105,108.4c0,2.5-2.1,4.4-4.3,3.9c-6.9-1.5-13.7-2.6-20.4-3.3c0.4-0.6,0.8-1.1,1.2-1.7h6.8c5.4,0,10.7-1.2,15.5-3.5   C104.4,105.4,105,106.9,105,108.4z"/><path d="M74,79c1.4,1.9,2.2,4.2,2.3,6.6c-0.3-0.2-0.4-0.5-0.5-0.7c-0.9-1.2-1.7-2.5-2.8-3.6c-1.9-2.1-4.5-3.2-6.9-4.5   c-3.1-1.6-6-3.6-8.3-6.2c-1.1-1.2-2-2.6-3-4l0.4,0.2c-0.9-0.9-1.8-1.8-2.5-2.7c-5,3.9-10,5.2-13.5,5.7c-0.3,4.6-0.6,9.1-0.5,13.7   c0.3,9.8,3.9,17.9,9.5,25.5c-6.8,0.7-13.8,1.8-20.8,3.3c-2.3,0.5-4.3-1.4-4.3-3.9c6.8-13-1.5-27.9,0.7-41.5   c1-6.5,3.6-12.7,7.4-18.1C38.5,38,50.7,30.5,64,30.5c0.9,0,1.8,0,2.8,0.1c13,0.9,24.5,8.8,31.3,19.8c3.6,5.8,5.8,12.4,6.6,19.1   c0.2,2,0.3,4,0.2,6c-0.2,4.5-1.1,9-1.7,13.5c-4.1,3.4-9.3,5.4-14.7,5.4c1.7-4.4,2.8-9.1,3.2-13.9v0c0.1-1.2,0.7-4.6,0.2-3.6   c-5.4,1.6-12.9,1.3-20.2-0.8C72.5,77.1,73.3,78,74,79z"/><path d="M122.7,60.2c-1-2-3-3.2-5.2-3.1l-0.6,0c-1.8-6.1-4.5-12-8.2-17.3c-0.2-0.3-0.4-0.5-0.5-0.7l-0.7-1   c-5.2-7-11.9-12.7-19.3-16.5c-7.5-3.9-15.8-6-23.9-6H64h-0.1c-8.2,0-16.5,2.1-23.9,6c-7.4,3.9-14.1,9.6-19.3,16.5l-0.7,1   c-0.2,0.2-0.3,0.5-0.5,0.7c-3.7,5.3-6.5,11.2-8.2,17.3l-0.6,0c-2.2-0.1-4.3,1.1-5.2,3.1c-4,8.2-4.4,16.6-1.4,25.1   c0.7,2.1,2.7,3.5,4.9,3.6c2.7,0,5.5-0.1,8.2-0.1c0.1,0,0.1-0.2,0.1-0.2c0.4-1.9-0.3-4.3-0.6-6.2c-1.3-10.1-1.2-20.5,3.7-29.7   c1.6-3,3.6-5.8,5.4-8.5c0.2-0.2,0.3-0.5,0.5-0.7l0.6-0.9c4.5-6,10.3-11,16.7-14.3c6.4-3.3,13.4-5.1,20.4-5.1H64h0.1   c6.9,0,14,1.8,20.4,5.1c6.4,3.4,12.2,8.3,16.7,14.3l0.6,0.9c0.2,0.2,0.3,0.4,0.5,0.7c1.9,2.7,3.9,5.5,5.4,8.5   c4.9,9.3,5,19.6,3.7,29.7c-0.2,1.5-0.6,3.3-0.7,4.9c-5,7-13.2,11.5-22.4,11.5H75.9c-0.8-2.3-3-3.9-5.5-3.9h-3.5   c-3.2,0-5.9,2.6-5.9,5.9v0c0,3.2,2.6,5.9,5.9,5.9h3.5c2.5,0,4.7-1.6,5.5-3.9h12.5c10.9,0,20.5-5.5,26.2-13.9c1.5,0,3.1,0,4.6,0   c2.2-0.1,4.1-1.5,4.9-3.6C127.1,76.8,126.7,68.4,122.7,60.2z"/></g><text x="0" y="143" fill="#000000" font-size="5px" font-weight="bold" font-family="'Helvetica Neue', Helvetica, Arial-Unicode, Arial, Sans-serif">Created by Delwar Hossain</text><text x="0" y="148" fill="#000000" font-size="5px" font-weight="bold" font-family="'Helvetica Neue', Helvetica, Arial-Unicode, Arial, Sans-serif">from the Noun Project</text></svg>