<svg xmlns="http://www.w3.org/2000/svg" xmlns:xlink="http://www.w3.org/1999/xlink" xmlns:serif="http://www.serif.com/" viewBox="0 0 48 60" version="1.1" xml:space="preserve" style="" x="0px" y="0px" fill-rule="evenodd" clip-rule="evenodd" stroke-linejoin="round" stroke-miterlimit="2"><g transform="matrix(1,0,0,1,-48,-336)"><g><path d="M75.874,365.288C73.235,367.599 69.78,369 66,369C57.721,369 51,362.279 51,354C51,345.721 57.721,339 66,339C74.279,339 81,345.721 81,354C81,357.78 79.599,361.235 77.288,363.874L79.414,366L80.121,365.293C80.309,365.105 80.563,365 80.828,365C81.094,365 81.348,365.105 81.536,365.293L92.121,375.879C93.292,377.049 93.292,378.951 92.121,380.121C90.951,381.292 89.049,381.292 87.879,380.121C87.879,380.121 80.051,372.293 77.293,369.536C77.105,369.348 77,369.094 77,368.828C77,368.563 77.105,368.309 77.293,368.121L78,367.414L75.874,365.288ZM66,341C58.825,341 53,346.825 53,354C53,361.175 58.825,367 66,367C73.175,367 79,361.175 79,354C79,346.825 73.175,341 66,341Z"/></g></g><text x="0" y="63" fill="#000000" font-size="5px" font-weight="bold" font-family="'Helvetica Neue', Helvetica, Arial-Unicode, Arial, Sans-serif">Created by Mada Creative</text><text x="0" y="68" fill="#000000" font-size="5px" font-weight="bold" font-family="'Helvetica Neue', Helvetica, Arial-Unicode, Arial, Sans-serif">from the Noun Project</text></svg>