<svg xmlns="http://www.w3.org/2000/svg" xmlns:xlink="http://www.w3.org/1999/xlink" version="1.1" x="0px" y="0px" viewBox="0 0 100 125" enable-background="new 0 0 100 100" xml:space="preserve"><path d="M42.151,78.552v-6.569h-8.015C34.287,78.353,35.448,78.552,42.151,78.552z M28.838,66.054  c-2.599-1.774-4.854-4.003-6.776-6.467c-3.834-4.948-6.39-10.794-7.665-16.852c-0.006-0.029-0.015-0.06-0.022-0.087  c-0.2-0.698-0.925-1.104-1.621-0.904c-0.699,0.198-1.105,0.924-0.906,1.623l0.003,0.017c1.786,6.285,4.889,12.206,9.205,17.047  c2.161,2.413,4.646,4.546,7.43,6.179c2.776,1.633,5.876,2.732,9.048,3.035C34.391,69.123,31.428,67.827,28.838,66.054z   M46.766,68.13c2.847-1.456,4.928-4.037,6.746-6.614c1.803-2.628,3.309-5.452,4.618-8.365c1.303-2.912,2.403-5.923,3.264-9.022  c0.845-3.096,1.493-6.3,1.586-9.604v-0.11c-0.031-0.724-0.644-1.288-1.369-1.257c-0.726,0.03-1.286,0.645-1.255,1.368  c0.124,3.023-0.264,6.098-0.877,9.142c-0.619,3.043-1.487,6.054-2.562,8.989c-1.086,2.935-2.368,5.806-3.958,8.507  C51.344,63.816,49.492,66.483,46.766,68.13z M22.909,44.128c0.86,3.096,1.959,6.109,3.263,9.022  c1.309,2.913,2.815,5.737,4.622,8.365c1.816,2.577,3.897,5.161,6.742,6.614c-2.727-1.646-4.579-4.313-6.192-6.969  c-1.591-2.701-2.873-5.569-3.954-8.507c-1.076-2.935-1.942-5.945-2.567-8.986c-0.609-3.045-1.001-6.122-0.874-9.145v-0.091  c-0.02-0.724-0.622-1.297-1.35-1.276c-0.723,0.021-1.297,0.625-1.278,1.352l0.004,0.018C21.417,37.828,22.063,41.031,22.909,44.128z   M35.97,58.127c0.492,1.66,1.066,3.298,1.783,4.873c0.721,1.568,1.583,3.104,2.782,4.346c-1.116-1.314-1.865-2.883-2.479-4.47  c-0.608-1.596-1.07-3.247-1.45-4.913c-0.756-3.333-1.201-6.729-1.482-10.135c-0.54-6.813-0.476-13.675,0.278-20.418  c0.003-0.028,0.005-0.058,0.005-0.086c0.035-0.724-0.524-1.341-1.249-1.373c-0.723-0.033-1.339,0.525-1.371,1.251  c-0.332,6.967,0.046,13.918,1.03,20.773C34.324,51.398,34.991,54.806,35.97,58.127z M42.151,80.58c-7.365,0-9.513-0.953-9.959-7.258  C17.738,68.609,5,55.214,5,48.203c0-0.164,0.026-0.341,0.05-0.514C5.021,47.398,5,47.105,5,46.806c0-3.563,2.348-6.58,5.583-7.585  c-0.042-0.354-0.073-0.715-0.073-1.08c0-4.786,3.879-8.664,8.663-8.664c0.614,0,1.213,0.065,1.789,0.187  c0.564-4.24,4.187-7.514,8.578-7.514c1.587,0,3.067,0.432,4.345,1.175c1.26-3.343,4.481-5.724,8.267-5.724  c3.785,0,7.006,2.381,8.269,5.724c1.278-0.742,2.755-1.175,4.343-1.175c4.392,0,8.013,3.273,8.577,7.514  c0.58-0.122,1.178-0.187,1.787-0.187c4.787,0,8.669,3.878,8.669,8.664c0,0.367-0.031,0.725-0.077,1.08  c3.233,1.005,5.585,4.02,5.585,7.585c0,0.3-0.021,0.593-0.053,0.884c0.026,0.173,0.053,0.35,0.053,0.514  c0,7.011-12.739,20.406-27.194,25.119C51.663,79.627,49.516,80.58,42.151,80.58z M92.435,75.113  c-0.182,0.24-0.376,0.459-0.573,0.672c-0.087,0.152-0.171,0.313-0.269,0.442c-4.224,5.595-22.462,8.618-36.836,3.678  c0.235-0.384,0.182-2.376-0.103-2.674c14.74-5.777,28.496-19.58,28.496-29.06c0-0.193-0.011-0.389-0.03-0.594  c0.02-0.281,0.03-0.563,0.03-0.85c0-4.364-2.232-8.28-5.792-10.505c-0.382-3.302-2.008-6.227-4.385-8.32  c2.479-0.6,5.192-0.141,7.391,1.518c3.021,2.279,4.157,6.12,3.147,9.548c1.47,0.177,2.913,0.721,4.179,1.678  c3.503,2.644,4.422,7.438,2.323,11.162c0.534,0.251,1.051,0.557,1.538,0.928c3.819,2.883,4.582,8.313,1.702,12.137  c-0.222,0.292-0.463,0.558-0.712,0.818C94.52,68.444,94.579,72.267,92.435,75.113z M50.485,47.973  c0.984-6.855,1.363-13.806,1.035-20.773c-0.005-0.028-0.005-0.06-0.008-0.086c-0.081-0.721-0.73-1.24-1.452-1.159  c-0.721,0.08-1.239,0.729-1.157,1.451c0.751,6.744,0.815,13.605,0.278,20.418c-0.281,3.405-0.729,6.801-1.485,10.135  c-0.378,1.666-0.84,3.315-1.449,4.913c-0.615,1.589-1.361,3.155-2.477,4.472c1.196-1.242,2.057-2.777,2.778-4.347  c0.719-1.576,1.292-3.213,1.784-4.876C49.311,54.806,49.98,51.398,50.485,47.973z M72.453,43.361  c0.01-0.029,0.018-0.055,0.023-0.084c0.146-0.71-0.306-1.408-1.014-1.556c-0.712-0.149-1.41,0.304-1.556,1.013  c-1.275,6.058-3.832,11.902-7.666,16.853c-1.921,2.464-4.174,4.693-6.775,6.468c-2.59,1.772-5.55,3.066-8.697,3.588  c3.176-0.304,6.271-1.401,9.049-3.032c2.784-1.633,5.27-3.769,7.429-6.179c4.319-4.842,7.418-10.762,9.203-17.047L72.453,43.361z"/><text x="0" y="115" fill="#000000" font-size="5px" font-weight="bold" font-family="'Helvetica Neue', Helvetica, Arial-Unicode, Arial, Sans-serif">Created by Clockwise</text><text x="0" y="120" fill="#000000" font-size="5px" font-weight="bold" font-family="'Helvetica Neue', Helvetica, Arial-Unicode, Arial, Sans-serif">from the Noun Project</text></svg>