<svg xmlns="http://www.w3.org/2000/svg" xmlns:xlink="http://www.w3.org/1999/xlink" version="1.1" x="0px" y="0px" viewBox="0 0 100 125" enable-background="new 0 0 100 100" xml:space="preserve"><path fill-rule="evenodd" clip-rule="evenodd" d="M76.6,64.1c-0.2,1-1.1,1.8-2.2,1.8H36L37,71h34.3c2.9,0,2.9,4.4,0,4.4H35.1  c-1.1,0-2.1-0.8-2.2-1.9C29.5,54.2,26,34.8,22.6,15.4h-8.1c-2.9,0-2.9-4.4,0-4.4h10c1.1,0,2.1,0.8,2.2,1.9l2.4,13.6h56.5  c1.6,0,2.7,1.7,2,3.1L76.6,64.1L76.6,64.1z M65.8,76.6c3.4,0,6.2,2.8,6.2,6.2c0,3.4-2.8,6.2-6.2,6.2c-3.4,0-6.2-2.8-6.2-6.2  C59.5,79.3,62.3,76.6,65.8,76.6L65.8,76.6z M41.8,76.6c3.4,0,6.2,2.8,6.2,6.2c0,3.4-2.8,6.2-6.2,6.2c-3.4,0-6.2-2.8-6.2-6.2  C35.5,79.3,38.3,76.6,41.8,76.6z"/><text x="0" y="115" fill="#000000" font-size="5px" font-weight="bold" font-family="'Helvetica Neue', Helvetica, Arial-Unicode, Arial, Sans-serif">Created by LINDA WATI</text><text x="0" y="120" fill="#000000" font-size="5px" font-weight="bold" font-family="'Helvetica Neue', Helvetica, Arial-Unicode, Arial, Sans-serif">from the Noun Project</text></svg>