<svg xmlns="http://www.w3.org/2000/svg" xmlns:xlink="http://www.w3.org/1999/xlink" version="1.1" x="0px" y="0px" viewBox="0 0 50 62.5" enable-background="new 0 0 50 50" xml:space="preserve"><g><path d="M30.4,31.8l5.8,5.8c-0.3,0.7-0.2,1.5,0.4,2.1l8.9,8.9c0.7,0.7,1.9,0.7,2.6,0l0.4-0.4c0.7-0.7,0.7-1.9,0-2.7l-8.9-8.8   c-0.6-0.6-1.4-0.7-2.1-0.4l-5.8-5.8c6.2-6.9,6-17.6-0.6-24.3C24.2-0.7,13-0.7,6.2,6.2c-6.9,6.9-6.9,18.1,0,24.9   C12.8,37.8,23.5,38,30.4,31.8z M46.7,45.7c0.6,0,1.1,0.5,1.1,1.1c0,0.6-0.5,1.1-1.1,1.1c-0.6,0-1.1-0.5-1.1-1.1   C45.6,46.2,46.1,45.7,46.7,45.7z M7.6,7.6c6.1-6.1,16-6.1,22.1,0c6.1,6.2,6.1,16.1,0,22.1c-6.1,6.1-16,6.1-22.1,0   C1.5,23.6,1.5,13.7,7.6,7.6z"/><path d="M28.3,28.3c5.3-5.3,5.4-13.9,0-19.3C23,3.7,14.3,3.7,9,9c-5.3,5.3-5.3,14,0,19.3C14.3,33.7,23,33.6,28.3,28.3z M25.8,18   l3.3-2.2v5l-3.3-2.2c-3.4,3.2-8.2,4.2-12.4,3c1.8-3.3,0.8-5.6,0-6.6C17.8,13.7,22.5,14.8,25.8,18z M8.6,17.4c1.2-1,2.5-1.7,3.9-2.2   c0.6,0.7,2,2.8,0.1,6.2c-1.4-0.5-2.8-1.2-4-2.2C8.1,18.7,8.1,17.9,8.6,17.4z"/><circle cx="10.5" cy="17.5" r="0.6"/></g><text x="0" y="65" fill="#000000" font-size="5px" font-weight="bold" font-family="'Helvetica Neue', Helvetica, Arial-Unicode, Arial, Sans-serif">Created by Vectors Market</text><text x="0" y="70" fill="#000000" font-size="5px" font-weight="bold" font-family="'Helvetica Neue', Helvetica, Arial-Unicode, Arial, Sans-serif">from the Noun Project</text></svg>