<svg xmlns="http://www.w3.org/2000/svg" xmlns:xlink="http://www.w3.org/1999/xlink" version="1.1" x="0px" y="0px" viewBox="0 0 64 80" style="enable-background:new 0 0 64 64;" xml:space="preserve"><g><path d="M48.815,46.723c-3.105,3.962-6.425,2.748-8.329,0.131c2.707-6.933,6.254-29.081-7.84-41.288   c-0.373-0.314-0.918-0.314-1.29,0C17.262,17.763,20.81,39.929,23.514,46.854c-1.891,2.62-5.256,3.826-8.329-0.131   c-0.835-1.008-2.381,0.268-1.545,1.281c3.956,5.017,8.85,3.659,11.468,0.069c0.809,0.404,2.233,0.276,3.122,0.294   c0.261,1.739,0.543,6.003-2.571,7.682c-3.716,2.002-6.11-1.523-6.367-1.929c-0.296-0.47-0.915-0.612-1.384-0.317   c-0.469,0.294-0.612,0.914-0.318,1.383c1.492,2.552,5.518,4.737,9.021,2.63c4.076-2.197,3.959-7.13,3.65-9.448h3.474   c-0.309,2.319-0.425,7.252,3.651,9.449c3.501,2.104,7.53-0.075,9.021-2.63c0.687-1.114-0.991-2.169-1.699-1.069   c-0.26,0.409-2.651,3.938-6.369,1.932c-3.115-1.678-2.832-5.943-2.572-7.682h1.671c0.513,0,1-0.11,1.452-0.293   c2.623,3.604,7.528,4.931,11.468-0.07C51.189,46.993,49.66,45.716,48.815,46.723z M27.667,35.424c-2.119-0.036-2.118-3.188,0-3.224   C29.786,32.236,29.785,35.388,27.667,35.424z M36.334,35.424c-2.119-0.036-2.118-3.188,0-3.224   C38.452,32.236,38.452,35.388,36.334,35.424z"/><path d="M19.144,29.806c0.118-4.374,0.781-9.083,2.451-13.569c-1.994,2.592-4.072,4.983-5.148,5.521   c-0.8,0.4-1.239,1.281-1.076,2.16C15.405,24.106,16.111,27.721,19.144,29.806z"/><path d="M48.63,23.919c0.163-0.879-0.276-1.76-1.076-2.16c-1.076-0.538-3.154-2.929-5.149-5.521   c1.67,4.486,2.333,9.195,2.451,13.569C47.889,27.721,48.595,24.106,48.63,23.919z"/></g><text x="0" y="79" fill="#000000" font-size="5px" font-weight="bold" font-family="'Helvetica Neue', Helvetica, Arial-Unicode, Arial, Sans-serif">Created by Fourupstudio</text><text x="0" y="84" fill="#000000" font-size="5px" font-weight="bold" font-family="'Helvetica Neue', Helvetica, Arial-Unicode, Arial, Sans-serif">from the Noun Project</text></svg>