<svg xmlns="http://www.w3.org/2000/svg" xmlns:xlink="http://www.w3.org/1999/xlink" version="1.1" x="0px" y="0px" viewBox="0 0 64 80" style="enable-background:new 0 0 64 64;" xml:space="preserve"><g><g><path d="M47,5c-8.2700195,0-15,6.7299805-15,15c0,1.7299805,0.289978,3.4099731,0.8599854,5h1.0700073H35    c-0.6599731-1.5700073-1-3.2600098-1-5c0-7.1700439,5.8300171-13,13-13s13,5.8299561,13,13    c0,6.1300049-4.2700195,11.289978-10,12.6400146v1.0299683v1.0200195C56.8400269,33.2999878,62,27.2399902,62,20    C62,11.7299805,55.2700195,5,47,5z"/><path d="M19,38c2.210022,0,4-1.7900391,4-4c0-1.2000122-0.5300293-2.2700195-1.3599854-3    C20.9299927,30.3800049,20.0100098,30,19,30s-1.9299927,0.3800049-2.6400146,1C15.5300293,31.7299805,15,32.7999878,15,34    C15,36.2099609,16.789978,38,19,38z"/><path d="M19,40c-3.3099976,0-6,2.6900024-6,6v3c0,0.5499878,0.4500122,1,1,1h10c0.5499878,0,1-0.4500122,1-1v-3    C25,42.6900024,22.3099976,40,19,40z"/><path d="M41,45H29c-0.5499878,0-1,0.4500122-1,1s0.4500122,1,1,1h12c0.5499878,0,1-0.4500122,1-1S41.5499878,45,41,45z"/><path d="M41,39H29c-0.5499878,0-1,0.4500122-1,1s0.4500122,1,1,1h12c0.5499878,0,1-0.4500122,1-1S41.5499878,39,41,39z"/><path d="M41,33H29c-0.5499878,0-1,0.4500122-1,1s0.4500122,1,1,1h12c0.5499878,0,1-0.4500122,1-1S41.5499878,33,41,33z"/><path d="M40,55H9c-1.6500244,0-3-1.3500366-3-3V35v-1v-1H3c-0.5499878,0-1,0.4500122-1,1v24c0,0.5499878,0.4500122,1,1,1h38    c0.5499878,0,1-0.4500122,1-1v-3h-1H40z"/><path d="M43,13c-1.6500244,0-3,1.3499756-3,3c0,1.6499634,1.3499756,3,3,3s3-1.3500366,3-3C46,14.3499756,44.6500244,13,43,13z     M43,17c-0.5499878,0-1-0.4500122-1-1s0.4500122-1,1-1s1,0.4500122,1,1S43.5499878,17,43,17z"/><path d="M41,25c0,0.2600098,0.0999756,0.5199585,0.289978,0.7099609C41.4899902,25.8999634,41.7399902,26,42,26    s0.5100098-0.1000366,0.710022-0.2900391L43.4199829,25l9.2900391-9.2900391c0.3899536-0.3899536,0.3899536-1.0299683,0-1.4199829    c-0.3900146-0.3900146-1.0300293-0.3900146-1.4200439,0l-10,10C41.0999756,24.4799805,41,24.7399902,41,25z"/><path d="M54,24c0-1.6500244-1.3499756-3-3-3s-3,1.3499756-3,3c0,0.4599609,0.1099854,0.9099731,0.2999878,1.2999878    c0.2900391,0.6099854,0.7900391,1.1099854,1.4000244,1.4000244C50.0900269,26.8900146,50.539978,27,51,27    C52.6500244,27,54,25.6499634,54,24z M51,23c0.5499878,0,1,0.4500122,1,1s-0.4500122,1-1,1s-1-0.4500122-1-1S50.4500122,23,51,23z    "/><path d="M47,27H34.8900146h-1.1500244H9c-0.5499878,0-1,0.4500122-1,1v5v1v18c0,0.5499878,0.4500122,1,1,1h32h1h5    c0.5499878,0,1-0.4500122,1-1V34.9599609v-1V28C48,27.4500122,47.5499878,27,47,27z M41,51H10V34v-5h25.5200195H46v5v17H41z"/></g></g><text x="0" y="79" fill="#000000" font-size="5px" font-weight="bold" font-family="'Helvetica Neue', Helvetica, Arial-Unicode, Arial, Sans-serif">Created by Iconiqu</text><text x="0" y="84" fill="#000000" font-size="5px" font-weight="bold" font-family="'Helvetica Neue', Helvetica, Arial-Unicode, Arial, Sans-serif">from the Noun Project</text></svg>