<svg xmlns="http://www.w3.org/2000/svg" xmlns:xlink="http://www.w3.org/1999/xlink" version="1.1" x="0px" y="0px" viewBox="0 0 100 125" style="enable-background:new 0 0 100 100;" xml:space="preserve"><path d="M84.9,17.4c2.1-2.4,0.3-6.5-3-6.4c-2.1,0-3.9,1.7-3.9,3.9C78,18.5,82.7,20.2,84.9,17.4z M81.4,16.7c-2-0.6-1.5-3.6,0.5-3.6  C84.8,13.2,84.1,17.4,81.4,16.7z M35.4,75.6c-1.3,0-2.4,1-2.6,2.3c-0.3,3,3.9,3.2,4.7,0.6C38,77.1,36.9,75.5,35.4,75.6z M35.5,77.8  c0,0.3-0.5,0.6-0.7,0.5C34.6,77.9,35.6,77.2,35.5,77.8z M82.6,75.6c-3,0-3.8,4.6-0.4,4.8C85.1,80.3,85.9,75.8,82.6,75.6z M82.7,77.9  c0,0.3-0.7,0.7-0.7,0.3c0.1-0.3,0.2-0.5,0.6-0.5C82.7,77.6,82.7,77.8,82.7,77.9z M78.3,65.4c0-0.6,0.5-1,1-1h3.1c0.6,0,1,0.5,1,1  c0,0.6-0.5,1-1,1h-3.1C78.8,66.4,78.3,65.9,78.3,65.4z M3.9,62.3c4.2-0.1,4.2-6.3,0-6.4C-0.3,56.1-0.3,62.2,3.9,62.3z M3.9,58  c1.5,0,1.5,2.3,0,2.3C2.4,60.3,2.4,58,3.9,58z M79.1,46.1c0.3-1.4-0.9-2.8-2.3-2.8c0,0-48.6,0-48.6,0c-1.4,0-2.6,1.1-2.8,2.4  l-0.2,1.5c-1.4,0-3.5-0.3-4.5,0.9c-2,1.9-0.5,5.5,2.3,5.4c0,0,11.5,0,11.5,0c1,0,1.6,1.3,0.8,2C35,55.9,34.7,56,34.4,56H12.2  c-1.7,0-3.2,1.5-3.2,3.2c0,1.8,1.4,3.2,3.2,3.2h24.1c0.6,0,1.2,0.5,1.2,1.2c0,0.6-0.5,1.2-1.2,1.2c0,0-16.6,0-16.6,0  c-1.8,0-3.2,1.4-3.2,3.2c0,1.8,1.4,3.2,3.2,3.2h1.5l-0.5,3.1c-1.1-0.1-2.2,0.3-2.4,1.5c0,0-0.4,2.2-0.4,2.2c-0.2,1,0.6,1.9,1.6,1.9  c0,0,8.4,0,8.4,0c1.2,7.7,11.5,6.4,13.8,0h33.4c1.2,7.7,11.5,6.4,13.8,0h8.1c0.9,0,1.6-0.7,1.8-1.5l0.4-2.2c0.2-0.9-0.6-1.9-1.6-1.8  c0,0-1.3,0-1.3,0c0.1-0.9,1.8-10,1.5-10.6h0c-0.2-1.7-1.5-3.2-3.3-3.5l-1-8l0.2-1.5c0.3-1.7-1-3.3-2.8-3.3c0,0-12.3,0-12.3,0  L79.1,46.1z M78,53h3c-0.2,1.1-0.9,5.8-1.1,6.9h-3C77.1,58.2,77.7,54.7,78,53z M28.2,77c-0.1,0.2-0.1,0.5-0.2,0.7h-8l0.2-1.5h8.2  C28.4,76.4,28.3,76.7,28.2,77z M40.1,78.5c-1,3.6-6.1,6.2-9,3.3c-1.8-1.9-1.1-5,0.5-6.8C35,71.2,41.5,72.8,40.1,78.5z M41.7,74.2  c-2.4-4.8-9.3-3.9-12.1,0h-6.9l0.8-5.1h-3.9c-1.5,0-1.5-2.3,0-2.3c0,0,16.6,0,16.6,0c0.9,0,1.7-0.3,2.2-0.9c2-1.9,0.5-5.5-2.2-5.5  c0,0-24.1,0-24.1,0c-0.6,0-1.2-0.5-1.2-1.2c0-0.6,0.5-1.2,1.2-1.2c0,0,22.2,0,22.2,0c4.2-0.1,4.2-6.3,0-6.4c0,0-11.5,0-11.5,0  c-1.5,0-1.5-2.3,0-2.3c0,0,4,0,4,0s0.5-3.2,0.5-3.2c0.1-0.4,0.5-0.7,0.8-0.7h48.6c0.2,0,0.4,0.2,0.3,0.4c0,0-0.2,1.5-0.3,1.5  c0,0-0.1,0.9-0.1,0.9l0,0.1L76.3,51l-0.1,0v0.9l-0.7,4.1l-2.7,16.6l-0.3,1.5H41.7z M75.4,77c-0.1,0.2-0.1,0.5-0.2,0.7H42.3  c0-0.5,0-1,0-1.5h33.3C75.6,76.4,75.5,76.7,75.4,77z M87.4,78.1c-1,5.4-10,7.4-10.2,0.6c0.2-3.1,3.1-6,6.3-5.9  C86.2,72.9,88.1,75.5,87.4,78.1z M96.1,76.2h1.1l-0.2,1.5h-7.4c0-0.5,0-1,0-1.5L96.1,76.2L96.1,76.2z M95.5,67.1h-2.8  c-0.9,0-1.4-0.7-1.3-1.5h4.3L95.5,67.1z M93.7,62c1,0,1.9,0.6,2.1,1.6h-4.4c-2.2,0-2.5,3.1-1.2,4.4c0.6,0.7,1.5,1.1,2.5,1.1h2.4  l-0.8,5.1h-5.5c-2.5-4.8-9.2-3.9-12.1,0h-2.3l2-12.2H93.7z M81.9,60c0.1-0.7,1-6.4,1.1-6.9h8.8l0.8,6.9H81.9z M91.2,49.3  c1,0,0.8,1,0.6,1.7h-8.6v0l-4.9,0c0.1-0.4,0.2-1.3,0.3-1.7H91.2z M17.3,50.5c-0.1-4.2-6.3-4.2-6.4,0C11.1,54.7,17.2,54.7,17.3,50.5z   M13,50.5c0-1.5,2.3-1.5,2.3,0C15.3,52,13,52,13,50.5z M48.5,58.7c0,0.6-0.5,1-1,1h-3.3L43.3,64c-0.3,1.3-2.2,0.9-2-0.4  c0,0,1.8-8.6,1.8-8.6c0.1-0.5,0.5-0.8,1-0.8h4.2c0.6,0,1,0.5,1,1s-0.5,1-1,1h-3.3l-0.3,1.4h2.9C48.1,57.7,48.5,58.1,48.5,58.7z   M63.2,59.5c0,0.6-0.5,1-1,1h-3.3l-0.5,2.3h2.9c1.3,0,1.3,2,0,2c0,0-4.2,0-4.2,0c-0.6,0-1.1-0.6-1-1.2c0,0,1.8-8.6,1.8-8.6  c0.1-0.5,0.5-0.8,1-0.8H63c1.3,0,1.3,2,0,2c0,0-3.3,0-3.3,0l-0.5,2.3h2.9C62.7,58.5,63.2,59,63.2,59.5z M71.7,55.3c0,0.6-0.5,1-1,1  h-3.3l-0.5,2.3h2.9c1.3,0,1.3,2,0,2c0,0-3.3,0-3.3,0L66,62.8h2.9c0.6,0,1,0.5,1,1c0,0.6-0.5,1-1,1h-4.2c-0.3,0-0.6-0.1-0.8-0.4  c-0.2-0.2-0.3-0.5-0.2-0.8l1.8-8.6c0.1-0.5,0.5-0.8,1-0.8h4.2C71.2,54.2,71.7,54.7,71.7,55.3z M53.1,54.2h-1.8c-0.5,0-0.9,0.3-1,0.8  l-1.8,8.6c-0.3,1.3,1.7,1.7,2,0.4c0,0,0.7-3.1,0.7-3.1h0.3l1.2,3.3c0.2,0.4,0.5,0.7,0.9,0.7c0.7,0,1.2-0.7,0.9-1.4  c0,0-1.1-2.9-1.1-2.9C56.7,59.4,57.1,54.4,53.1,54.2z M54,57.4c-0.3,1.1-1.4,1.6-2.4,1.5l0.5-2.6C52.9,56.3,54.2,56.1,54,57.4z   M97.2,86.4H2.8c-1.1,0-2.1,0.9-2.1,2.1v3c0,1.1,0.9,2.1,2.1,2.1h94.4c1.1,0,2.1-0.9,2.1-2.1v-3C99.3,87.4,98.4,86.4,97.2,86.4z   M97.3,91.5c0,0.1-94.5,0-94.5,0l0-3.1l94.5,0V91.5z M11.7,29.8c0.1,0.1,0.1,0.2,0.2,0.4c-2.6,2.3-0.8,6.7,2.6,6.7  c1.8,0,3.2-1.2,3.7-2.8h26.3c1,3.7,6.4,3.7,7.4,0h26.3c0.4,1.6,1.9,2.8,3.7,2.8c3.4,0.1,5.2-4.4,2.6-6.7c2.3-4.7,5.5-10.8,5.9-15.2  c0-4.7-3.8-8.5-8.5-8.5c-4.7,0-8.5,3.8-8.5,8.5c0.5,4.8,3.2,9.5,5.9,15.2c-0.5,0.5-0.9,1.1-1.1,1.8H51.9c-1-3.7-6.4-3.7-7.4,0H18.2  c-0.2-0.7-0.6-1.3-1.1-1.8c2-4.2,5.7-11.1,5.9-15.2c0-4.7-3.8-8.5-8.5-8.5C9.8,6.4,6,10.2,6,14.9C6.4,19.4,9.8,25.8,11.7,29.8z   M82,34.8c-1.3,0-2.3-1.5-1.6-2.7c0.4,0.8,0.7,1.3,0.7,1.3c0.2,0.3,0.5,0.5,0.9,0.5c1,0,1.1-1.2,1.6-1.9  C84.2,33.3,83.3,34.8,82,34.8z M76.5,19c-0.8-2.3-1-3.5-1-4c0-3.6,2.9-6.5,6.5-6.5c3.6,0,6.5,2.9,6.5,6.5C88,19.2,84.2,26.3,82,30.8  C79.9,26.9,77.5,21.7,76.5,19z M48.2,31.2c2.4,0,2.4,3.6,0,3.6C45.9,34.8,45.9,31.2,48.2,31.2z M14.5,34.8c-1.3,0-2.3-1.5-1.6-2.7  c0.4,0.8,0.7,1.3,0.7,1.3c0.2,0.3,0.5,0.5,0.9,0.5c1,0,1.1-1.2,1.6-1.9C16.8,33.3,15.9,34.8,14.5,34.8z M14.5,8.4  c3.6,0,6.5,2.9,6.5,6.5c-0.4,4.1-4.4,11.7-6.5,15.9C12.3,26.4,8.6,19.6,8,14.9C8,11.4,10.9,8.4,14.5,8.4z M13.3,18.6  c5.7,1.5,7.1-7.2,1.2-7.6C10.1,11.1,9.2,17.2,13.3,18.6z M14.5,13.1c2.8,0.1,2.2,4.3-0.5,3.6C12,16.1,12.4,13.1,14.5,13.1z"/><text x="0" y="115" fill="#000000" font-size="5px" font-weight="bold" font-family="'Helvetica Neue', Helvetica, Arial-Unicode, Arial, Sans-serif">Created by mangunkarsa</text><text x="0" y="120" fill="#000000" font-size="5px" font-weight="bold" font-family="'Helvetica Neue', Helvetica, Arial-Unicode, Arial, Sans-serif">from the Noun Project</text></svg>